# xmcd
#
# Track frame offsets:
#	150
#	14392
#	26973
#	38789
#	49917
#	59713
#	68726
#	78937
#	91733
#	101944
#	112198
#	120663
#	135332
#	146763
#	156793
#	166693
#
# Disc length: 2353 seconds
#
# Revision: 0
# Processed by: cddbd v1.5.2PL0 Copyright (c) Steve Scherf et al.
# Submitted via: EasyCDDAExtractor 12.0.0.1
#
DISCID=db092f10
DTITLE=Eddie Pennington - Amp Noise
DYEAR=1900
DGENRE=Country
TTITLE0=Take Me Back To Tulsa
TTITLE1=Up A Lazy River
TTITLE2=My Front Door Is Open For Someone Like You
TTITLE3=Midnight Special
TTITLE4=Dixie Cannonball
TTITLE5=When You're Smiling
TTITLE6=Bluebell
TTITLE7=Goat Ropin'
TTITLE8=Texas Tornado
TTITLE9=Oh, Lonesome Me
TTITLE10=Nute Frances
TTITLE11=Always
TTITLE12=Sittin' On Top Of The World
TTITLE13=Heart Of My Heart
TTITLE14=I Dreamed Of An Old Love Affair
TTITLE15=Sleep
EXTD=
EXTT0=
EXTT1=
EXTT2=
EXTT3=
EXTT4=
EXTT5=
EXTT6=
EXTT7=
EXTT8=
EXTT9=
EXTT10=
EXTT11=
EXTT12=
EXTT13=
EXTT14=
EXTT15=
PLAYORDER=
